<svg width="40" height="40" viewBox="0 0 40 40" fill="none" xmlns="http://www.w3.org/2000/svg">
<path d="M16.716 16.1874L19.2155 10.8876C19.5364 10.2073 20.4633 10.2073 20.7842 10.8876L23.2837 16.1874L28.8733 17.0425C29.5905 17.1522 29.8764 18.0748 29.3571 18.6041L25.3132 22.7265L26.2676 28.5504C26.3902 29.2983 25.6401 29.8686 24.9983 29.5154L19.9998 26.7642L15.0013 29.5154C14.3596 29.8686 13.6095 29.2983 13.7321 28.5504L14.6865 22.7265L10.6425 18.6041C10.1233 18.0748 10.4092 17.1522 11.1263 17.0425L16.716 16.1874Z" stroke="#FF7F2A" stroke-width="2.40566" stroke-linecap="round" stroke-linejoin="round"/>
<path d="M36.0376 20L37.6414 20" stroke="#FF7F2A" stroke-width="2.40566" stroke-linecap="round" stroke-linejoin="round"/>
<path d="M20 3.96227V2.35849" stroke="#FF7F2A" stroke-width="2.40566" stroke-linecap="round" stroke-linejoin="round"/>
<path d="M20 37.6415V36.0377" stroke="#FF7F2A" stroke-width="2.40566" stroke-linecap="round" stroke-linejoin="round"/>
<path d="M32.8301 32.8302L31.2263 31.2264" stroke="#FF7F2A" stroke-width="2.40566" stroke-linecap="round" stroke-linejoin="round"/>
<path d="M32.8301 7.16981L31.2263 8.77358" stroke="#FF7F2A" stroke-width="2.40566" stroke-linecap="round" stroke-linejoin="round"/>
<path d="M7.16968 32.8302L8.77345 31.2264" stroke="#FF7F2A" stroke-width="2.40566" stroke-linecap="round" stroke-linejoin="round"/>
<path d="M7.16968 7.16981L8.77345 8.77358" stroke="#FF7F2A" stroke-width="2.40566" stroke-linecap="round" stroke-linejoin="round"/>
<path d="M2.3584 20L3.96217 20" stroke="#FF7F2A" stroke-width="2.40566" stroke-linecap="round" stroke-linejoin="round"/>
</svg>
