<svg width="67" height="76" viewBox="0 0 67 76" fill="none" xmlns="http://www.w3.org/2000/svg">
<path d="M7.53934 7.97422C6.77816 7.983 6.02307 8.11287 5.30182 8.35906C4.39911 8.6673 3.56531 9.15234 2.84804 9.78645C2.13076 10.4206 1.54408 11.1913 1.12149 12.0548C0.698774 12.9183 0.448498 13.8576 0.384964 14.819C0.32143 15.7804 0.44587 16.745 0.751198 17.6578C1.05653 18.5705 1.53675 19.4135 2.16442 20.1385C2.79208 20.8635 3.5549 21.4564 4.40927 21.8832C12.0005 25.6794 19.5051 27.8006 26.8373 28.5784C14.568 38.8989 7.2767 49.3568 0.853243 64.9098C0.304355 66.2397 0.155085 67.7037 0.424064 69.1188C0.693042 70.534 1.36836 71.8377 2.36569 72.8671C3.36302 73.8966 4.63818 74.6062 6.03196 74.9074C7.42575 75.2086 8.87642 75.088 10.2028 74.5606C26.7784 67.9631 40.7713 64.8534 55.5387 73.9905C57.1791 75.0049 59.1508 75.3193 61.0203 74.8644C62.8899 74.4096 64.5043 73.2228 65.5088 71.565C66.0061 70.7435 66.3386 69.8311 66.4872 68.8798C66.6358 67.9284 66.5977 66.9568 66.3749 66.0204C66.1521 65.084 65.7491 64.2011 65.1889 63.4221C64.6287 62.6432 63.9222 61.9834 63.1097 61.4806C49.1127 52.8201 34.7605 52.7558 21.1798 55.8826C28.5109 43.0795 38.0099 35.7874 62.9388 21.7103C64.5806 20.7809 65.801 19.2427 66.3424 17.4206C66.8837 15.5986 66.7037 13.6351 65.8402 11.9447C64.9768 10.2543 63.4975 8.96927 61.7146 8.36084C59.9318 7.75241 57.9848 7.86819 56.2848 8.68376C52.3073 10.5971 48.3794 12.0954 44.4295 13.0966C44.3669 13.3601 44.2966 13.6208 44.2179 13.8787C44.1258 14.1809 44.0211 14.48 43.9072 14.7735C43.7937 15.0657 43.6683 15.3579 43.5322 15.6435C43.3967 15.9283 43.252 16.2051 43.0968 16.4772C42.9411 16.7498 42.7772 17.0171 42.6009 17.2784C42.4254 17.5384 42.2389 17.7932 42.0437 18.0405C41.8484 18.2881 41.6447 18.5247 41.4335 18.7548C41.3496 18.8459 41.2623 18.9362 41.1748 19.026C41.8671 19.2484 42.558 19.4911 43.247 19.7584C43.389 19.8135 43.5188 19.8963 43.629 20.0022C43.7393 20.108 43.8278 20.2349 43.8895 20.3754C43.9512 20.5159 43.9848 20.6674 43.9885 20.8211C43.9922 20.9748 43.9658 21.1277 43.911 21.2711C43.801 21.5601 43.582 21.7931 43.3022 21.919C43.0224 22.0449 42.7046 22.0533 42.4187 21.9424C35.717 19.3424 29.1966 18.9497 22.5889 21.9165C22.4502 21.9793 22.3005 22.0138 22.1486 22.018C21.9966 22.0223 21.8453 21.9961 21.7033 21.9411C21.5614 21.8861 21.4315 21.8033 21.3213 21.6975C21.211 21.5917 21.1225 21.4649 21.0608 21.3245C20.9993 21.1841 20.9659 21.0329 20.9623 20.8795C20.9587 20.7261 20.985 20.5735 21.0397 20.4304C21.0944 20.2872 21.1765 20.1564 21.2812 20.0454C21.386 19.9343 21.5113 19.8452 21.6501 19.7832C22.2315 19.5221 22.8133 19.2873 23.3956 19.0736C23.2933 18.9711 23.1913 18.8666 23.0914 18.7585C22.879 18.527 22.673 18.2882 22.4775 18.0403C22.2825 17.7933 22.0966 17.5381 21.9212 17.2783C21.7448 17.0168 21.58 16.7495 21.4244 16.4771C21.269 16.2048 21.1246 15.9285 20.989 15.6434C20.853 15.3581 20.7274 15.0654 20.614 14.7735C20.5 14.4797 20.3963 14.1808 20.3042 13.8786C20.2126 13.578 20.131 13.2741 20.0615 12.9657C20.021 12.7865 19.9856 12.6071 19.9538 12.4281C17.0017 11.5164 13.9732 10.3005 10.8413 8.73429C9.81538 8.22105 8.6839 7.96064 7.53934 7.97422Z" fill="white"/>
<path d="M32.286 0.830078C29.367 0.83078 26.555 1.92471 24.4082 3.89468C22.2614 5.86465 20.9369 8.56662 20.6975 11.4642C20.7181 11.7242 20.7475 11.9835 20.7856 12.2415C20.8288 12.5269 20.8827 12.8106 20.9471 13.092C21.0116 13.3737 21.0867 13.6528 21.1721 13.9288C21.2576 14.2051 21.3535 14.4782 21.4595 14.7473C21.5655 15.0162 21.6816 15.281 21.8075 15.5411C21.9331 15.8012 22.0685 16.0566 22.2133 16.3066C22.3584 16.5567 22.5127 16.8014 22.6761 17.04C22.8396 17.2787 23.0121 17.5111 23.193 17.7369C23.3739 17.9628 23.5632 18.1818 23.7605 18.3935C23.8824 18.5235 24.0073 18.6507 24.1351 18.7749C24.1441 18.7731 24.151 18.7712 24.1598 18.7675C24.2806 18.7372 24.4017 18.7067 24.5225 18.6779C24.6433 18.6489 24.7635 18.6211 24.8843 18.5938C25.0051 18.5662 25.1261 18.5402 25.2469 18.5142C25.3678 18.4881 25.4888 18.4626 25.6096 18.4382C25.7304 18.4138 25.8506 18.3898 25.9714 18.367C26.0922 18.3439 26.2133 18.322 26.3341 18.3002C26.4549 18.2785 26.576 18.2573 26.6968 18.2369C26.8176 18.2168 26.9377 18.198 27.0585 18.1793C27.1794 18.1606 27.3004 18.1418 27.4212 18.1244C27.542 18.1059 27.6622 18.091 27.783 18.0749C27.9038 18.0583 28.0249 18.0436 28.1457 18.0292C28.3872 18 28.6286 17.9734 28.8701 17.9496C29.1117 17.9261 29.3539 17.9056 29.5955 17.8875C29.837 17.869 30.0784 17.8548 30.3199 17.8419C30.5615 17.8289 30.8028 17.8189 31.0444 17.8116C31.2859 17.8042 31.5273 17.7986 31.7688 17.7968C32.0104 17.795 32.2527 17.795 32.4942 17.7977C32.7358 17.8014 32.9771 17.8069 33.2187 17.8143C33.4602 17.8236 33.7016 17.8333 33.9431 17.8463C34.1847 17.8592 34.426 17.8758 34.6676 17.8939C34.9091 17.9124 35.1514 17.9322 35.3929 17.9553C35.6345 17.9784 35.8758 18.0035 36.1174 18.0313C36.359 18.0592 36.6003 18.0893 36.8418 18.1218C37.0834 18.1543 37.3256 18.1898 37.5672 18.227C37.8088 18.2641 38.0501 18.3031 38.2917 18.3449C38.5332 18.3868 38.7745 18.4312 39.0161 18.4774C39.2577 18.5237 39.499 18.5727 39.7406 18.6237C39.9718 18.6723 40.2035 18.7237 40.4347 18.7764C40.5632 18.6512 40.6887 18.5232 40.8112 18.3923C41.0085 18.1805 41.1978 17.9615 41.3786 17.7356C41.5596 17.5099 41.732 17.2774 41.8956 17.0388C42.0589 16.8001 42.2133 16.5555 42.3583 16.3053C42.5031 16.0553 42.6385 15.8 42.7642 15.5399C42.8901 15.2797 43.0061 15.0149 43.1122 14.746C43.2182 14.4769 43.314 14.2039 43.3996 13.9276C43.485 13.6515 43.56 13.3724 43.6245 13.0908C43.689 12.8094 43.7428 12.5257 43.786 12.2403C43.8248 11.978 43.8545 11.7144 43.8751 11.4501C43.6326 8.55467 42.3066 5.85572 40.1599 3.88839C38.0133 1.92106 35.2031 0.830286 32.286 0.830078Z" fill="white"/>
</svg>
